<svg width="32" height="32" viewBox="0 0 32 32" fill="none" xmlns="http://www.w3.org/2000/svg">
<path d="M20.2375 2.17483C17.85 1.49358 15.3562 2.87483 14.675 5.26233L14.3188 6.51233C14.0875 7.32483 13.6688 8.07483 13.1 8.69983L9.89375 12.2248C9.3375 12.8373 9.38125 13.7873 9.99375 14.3436C10.6062 14.8998 11.5563 14.8561 12.1125 14.2436L15.3188 10.7186C16.2 9.74983 16.8438 8.59358 17.2 7.33733L17.5562 6.08733C17.7812 5.29358 18.6125 4.83108 19.4125 5.05608C20.2125 5.28108 20.6688 6.11233 20.4438 6.91233L20.0875 8.16233C19.7312 9.40608 19.1687 10.5811 18.425 11.6311C18.1 12.0873 18.0625 12.6873 18.3188 13.1873C18.575 13.6873 19.0875 13.9998 19.65 13.9998H28C28.55 13.9998 29 14.4498 29 14.9998C29 15.4248 28.7313 15.7936 28.35 15.9373C27.8875 16.1123 27.5375 16.4998 27.4188 16.9811C27.3 17.4623 27.425 17.9686 27.75 18.3373C27.9062 18.5123 28 18.7436 28 18.9998C28 19.4873 27.65 19.8936 27.1875 19.9811C26.675 20.0811 26.2437 20.4373 26.0625 20.9311C25.8813 21.4248 25.9625 21.9748 26.2875 22.3873C26.4188 22.5561 26.5 22.7686 26.5 23.0061C26.5 23.4248 26.2375 23.7936 25.8625 23.9373C25.1437 24.2186 24.7563 24.9936 24.9625 25.7373C24.9875 25.8186 25 25.9123 25 26.0061C25 26.5561 24.55 27.0061 24 27.0061H17.9062C17.1187 27.0061 16.3438 26.7748 15.6875 26.3373L11.8313 23.7686C11.1438 23.3061 10.2125 23.4936 9.75 24.1873C9.2875 24.8811 9.475 25.8061 10.1687 26.2686L14.025 28.8373C15.175 29.6061 16.525 30.0123 17.9062 30.0123H24C26.1688 30.0123 27.9312 28.2873 28 26.1373C28.9125 25.4061 29.5 24.2811 29.5 23.0123C29.5 22.7311 29.4688 22.4623 29.4188 22.1998C30.3813 21.4686 31 20.3123 31 19.0123C31 18.6061 30.9375 18.2123 30.825 17.8436C31.55 17.1061 32 16.1061 32 14.9998C32 12.7936 30.2125 10.9998 28 10.9998H22.2313C22.525 10.3498 22.775 9.67483 22.9688 8.98733L23.325 7.73733C24.0063 5.34983 22.625 2.85608 20.2375 2.17483ZM2 11.9998C0.89375 11.9998 0 12.8936 0 13.9998V27.9998C0 29.1061 0.89375 29.9998 2 29.9998H6C7.10625 29.9998 8 29.1061 8 27.9998V13.9998C8 12.8936 7.10625 11.9998 6 11.9998H2Z" fill="black"/>
</svg>
